<svg xmlns="http://www.w3.org/2000/svg" viewBox="0 0 800 600" fill="none" stroke="#d4af37" stroke-width="2" stroke-linecap="round" stroke-linejoin="round"><g opacity="0.3"><path d="M80 80 V520" stroke-width="1"/><path d="M148 80 V520" stroke-width="1"/><path d="M216 80 V520" stroke-width="1"/><path d="M284 80 V520" stroke-width="1"/><path d="M352 80 V520" stroke-width="1"/><path d="M420 80 V520" stroke-width="1"/><path d="M488 80 V520" stroke-width="1"/><path d="M556 80 V520" stroke-width="1"/><path d="M624 80 V520" stroke-width="1"/><path d="M692 80 V520" stroke-width="1"/><path d="M760 80 V520" stroke-width="1"/><path d="M80 80 H760" stroke-width="1"/><path d="M80 135 H760" stroke-width="1"/><path d="M80 190 H760" stroke-width="1"/><path d="M80 245 H760" stroke-width="1"/><path d="M80 300 H760" stroke-width="1"/><path d="M80 355 H760" stroke-width="1"/><path d="M80 410 H760" stroke-width="1"/><path d="M80 465 H760" stroke-width="1"/><path d="M80 520 H760" stroke-width="1"/></g><g opacity="0.85"><ellipse cx="420" cy="300" rx="300" ry="180" opacity="0.35" stroke-dasharray="14 9"/><ellipse cx="420" cy="300" rx="230" ry="135" opacity="0.50" stroke-dasharray="14 9"/><ellipse cx="420" cy="300" rx="160" ry="92" opacity="0.65" stroke-dasharray="14 9"/><ellipse cx="420" cy="300" rx="92" ry="52" opacity="0.80"/><circle cx="420" cy="300" r="7" fill="#d4af37" stroke="none"/><path d="M120 520 L420 300 L740 190" opacity="0.5" stroke-dasharray="3 10"/></g></svg>
