<svg xmlns="http://www.w3.org/2000/svg" viewBox="0 0 800 600" fill="none" stroke="#d4af37" stroke-width="2" stroke-linecap="round" stroke-linejoin="round"><g opacity="0.8"><rect x="70" y="130" width="16" height="16" rx="2" opacity="0.25"/><rect x="97" y="130" width="16" height="16" rx="2" opacity="0.55"/><rect x="124" y="130" width="16" height="16" rx="2" opacity="0.55"/><rect x="151" y="130" width="16" height="16" rx="2" opacity="0.25"/><rect x="178" y="130" width="16" height="16" rx="2" opacity="0.55"/><rect x="205" y="130" width="16" height="16" rx="2" opacity="0.55"/><rect x="232" y="130" width="16" height="16" rx="2" opacity="0.25"/><rect x="259" y="130" width="16" height="16" rx="2" opacity="0.55"/><rect x="286" y="130" width="16" height="16" rx="2" opacity="0.55"/><rect x="313" y="130" width="16" height="16" rx="2" opacity="0.25"/><rect x="340" y="130" width="16" height="16" rx="2" opacity="0.55"/><rect x="70" y="157" width="16" height="16" rx="2" opacity="0.55"/><rect x="97" y="157" width="16" height="16" rx="2" opacity="0.55"/><rect x="124" y="157" width="16" height="16" rx="2" opacity="0.25"/><rect x="151" y="157" width="16" height="16" rx="2" opacity="0.55"/><rect x="178" y="157" width="16" height="16" rx="2" opacity="0.55"/><rect x="205" y="157" width="16" height="16" rx="2" opacity="0.25"/><rect x="232" y="157" width="16" height="16" rx="2" opacity="0.55"/><rect x="259" y="157" width="16" height="16" rx="2" opacity="0.55"/><rect x="286" y="157" width="16" height="16" rx="2" opacity="0.25"/><rect x="313" y="157" width="16" height="16" rx="2" opacity="0.55"/><rect x="340" y="157" width="16" height="16" rx="2" opacity="0.55"/><rect x="70" y="184" width="16" height="16" rx="2" opacity="0.55"/><rect x="97" y="184" width="16" height="16" rx="2" opacity="0.25"/><rect x="124" y="184" width="16" height="16" rx="2" opacity="0.55"/><rect x="151" y="184" width="16" height="16" rx="2" opacity="0.55"/><rect x="178" y="184" width="16" height="16" rx="2" opacity="0.25"/><rect x="205" y="184" width="16" height="16" rx="2" opacity="0.55"/><rect x="232" y="184" width="16" height="16" rx="2" opacity="0.55"/><rect x="259" y="184" width="16" height="16" rx="2" opacity="0.25"/><rect x="286" y="184" width="16" height="16" rx="2" opacity="0.55"/><rect x="313" y="184" width="16" height="16" rx="2" opacity="0.55"/><rect x="340" y="184" width="16" height="16" rx="2" opacity="0.25"/><rect x="70" y="211" width="16" height="16" rx="2" opacity="0.25"/><rect x="97" y="211" width="16" height="16" rx="2" opacity="0.55"/><rect x="124" y="211" width="16" height="16" rx="2" opacity="0.55"/><rect x="151" y="211" width="16" height="16" rx="2" opacity="0.25"/><rect x="178" y="211" width="16" height="16" rx="2" opacity="0.55"/><rect x="205" y="211" width="16" height="16" rx="2" opacity="0.55"/><rect x="232" y="211" width="16" height="16" rx="2" opacity="0.25"/><rect x="259" y="211" width="16" height="16" rx="2" opacity="0.55"/><rect x="286" y="211" width="16" height="16" rx="2" opacity="0.55"/><rect x="313" y="211" width="16" height="16" rx="2" opacity="0.25"/><rect x="340" y="211" width="16" height="16" rx="2" opacity="0.55"/><rect x="70" y="238" width="16" height="16" rx="2" opacity="0.55"/><rect x="97" y="238" width="16" height="16" rx="2" opacity="0.55"/><rect x="124" y="238" width="16" height="16" rx="2" opacity="0.25"/><rect x="151" y="238" width="16" height="16" rx="2" opacity="0.55"/><rect x="178" y="238" width="16" height="16" rx="2" opacity="0.55"/><rect x="205" y="238" width="16" height="16" rx="2" opacity="0.25"/><rect x="232" y="238" width="16" height="16" rx="2" opacity="0.55"/><rect x="259" y="238" width="16" height="16" rx="2" opacity="0.55"/><rect x="286" y="238" width="16" height="16" rx="2" opacity="0.25"/><rect x="313" y="238" width="16" height="16" rx="2" opacity="0.55"/><rect x="340" y="238" width="16" height="16" rx="2" opacity="0.55"/><rect x="70" y="265" width="16" height="16" rx="2" opacity="0.55"/><rect x="97" y="265" width="16" height="16" rx="2" opacity="0.25"/><rect x="124" y="265" width="16" height="16" rx="2" opacity="0.55"/><rect x="151" y="265" width="16" height="16" rx="2" opacity="0.55"/><rect x="178" y="265" width="16" height="16" rx="2" opacity="0.25"/><rect x="205" y="265" width="16" height="16" rx="2" opacity="0.55"/><rect x="232" y="265" width="16" height="16" rx="2" opacity="0.55"/><rect x="259" y="265" width="16" height="16" rx="2" opacity="0.25"/><rect x="286" y="265" width="16" height="16" rx="2" opacity="0.55"/><rect x="313" y="265" width="16" height="16" rx="2" opacity="0.55"/><rect x="340" y="265" width="16" height="16" rx="2" opacity="0.25"/><rect x="70" y="292" width="16" height="16" rx="2" opacity="0.25"/><rect x="97" y="292" width="16" height="16" rx="2" opacity="0.55"/><rect x="124" y="292" width="16" height="16" rx="2" opacity="0.55"/><rect x="151" y="292" width="16" height="16" rx="2" opacity="0.25"/><rect x="178" y="292" width="16" height="16" rx="2" opacity="0.55"/><rect x="205" y="292" width="16" height="16" rx="2" opacity="0.55"/><rect x="232" y="292" width="16" height="16" rx="2" opacity="0.25"/><rect x="259" y="292" width="16" height="16" rx="2" opacity="0.55"/><rect x="286" y="292" width="16" height="16" rx="2" opacity="0.55"/><rect x="313" y="292" width="16" height="16" rx="2" opacity="0.25"/><rect x="340" y="292" width="16" height="16" rx="2" opacity="0.55"/><path d="M410 260 H470" opacity="0.5"/><path d="M450 245 L470 260 L450 275" opacity="0.5"/><rect x="510" y="150" width="200" height="70" rx="6" stroke-width="2.5" opacity="0.8"/><path d="M530 185 H 690" opacity="0.3" stroke-dasharray="5 8"/><rect x="510" y="250" width="200" height="70" rx="6" stroke-width="2.5" opacity="0.8"/><path d="M530 285 H 690" opacity="0.3" stroke-dasharray="5 8"/><rect x="510" y="350" width="200" height="70" rx="6" stroke-width="2.5" opacity="0.8"/><path d="M530 385 H 690" opacity="0.3" stroke-dasharray="5 8"/></g></svg>
